<mxfile host="app.diagrams.net" modified="2021-03-24T18:23:55.122Z" agent="5.0 (Windows NT 10.0; Win64; x64) AppleWebKit/537.36 (KHTML, like Gecko) Chrome/89.0.4389.90 Safari/537.36" etag="7wWJA9_H22W9aIQMwcCN" version="14.5.1" type="github">
  <diagram id="A1-l7CTxYlgkHmf_2KO2" name="Page-1">
    <mxGraphModel dx="1422" dy="882" grid="1" gridSize="10" guides="1" tooltips="1" connect="1" arrows="1" fold="1" page="1" pageScale="1" pageWidth="827" pageHeight="1169" math="0" shadow="0">
      <root>
        <mxCell id="0" />
        <mxCell id="1" parent="0" />
        <mxCell id="fCQ5Y2yqFenwQ-32oqjo-1" value="Table" style="shape=table;startSize=30;container=1;collapsible=1;childLayout=tableLayout;fixedRows=1;rowLines=0;fontStyle=1;align=center;resizeLast=1;" vertex="1" parent="1">
          <mxGeometry x="140" y="180" width="180" height="160" as="geometry" />
        </mxCell>
        <mxCell id="fCQ5Y2yqFenwQ-32oqjo-2" value="" style="shape=partialRectangle;collapsible=0;dropTarget=0;pointerEvents=0;fillColor=none;top=0;left=0;bottom=1;right=0;points=[[0,0.5],[1,0.5]];portConstraint=eastwest;" vertex="1" parent="fCQ5Y2yqFenwQ-32oqjo-1">
          <mxGeometry y="30" width="180" height="30" as="geometry" />
        </mxCell>
        <mxCell id="fCQ5Y2yqFenwQ-32oqjo-3" value="PK" style="shape=partialRectangle;connectable=0;fillColor=none;top=0;left=0;bottom=0;right=0;fontStyle=1;overflow=hidden;" vertex="1" parent="fCQ5Y2yqFenwQ-32oqjo-2">
          <mxGeometry width="30" height="30" as="geometry" />
        </mxCell>
        <mxCell id="fCQ5Y2yqFenwQ-32oqjo-4" value="UniqueID" style="shape=partialRectangle;connectable=0;fillColor=none;top=0;left=0;bottom=0;right=0;align=left;spacingLeft=6;fontStyle=5;overflow=hidden;" vertex="1" parent="fCQ5Y2yqFenwQ-32oqjo-2">
          <mxGeometry x="30" width="150" height="30" as="geometry" />
        </mxCell>
        <mxCell id="fCQ5Y2yqFenwQ-32oqjo-5" value="" style="shape=partialRectangle;collapsible=0;dropTarget=0;pointerEvents=0;fillColor=none;top=0;left=0;bottom=0;right=0;points=[[0,0.5],[1,0.5]];portConstraint=eastwest;" vertex="1" parent="fCQ5Y2yqFenwQ-32oqjo-1">
          <mxGeometry y="60" width="180" height="30" as="geometry" />
        </mxCell>
        <mxCell id="fCQ5Y2yqFenwQ-32oqjo-6" value="" style="shape=partialRectangle;connectable=0;fillColor=none;top=0;left=0;bottom=0;right=0;editable=1;overflow=hidden;" vertex="1" parent="fCQ5Y2yqFenwQ-32oqjo-5">
          <mxGeometry width="30" height="30" as="geometry" />
        </mxCell>
        <mxCell id="fCQ5Y2yqFenwQ-32oqjo-7" value="Row 1" style="shape=partialRectangle;connectable=0;fillColor=none;top=0;left=0;bottom=0;right=0;align=left;spacingLeft=6;overflow=hidden;" vertex="1" parent="fCQ5Y2yqFenwQ-32oqjo-5">
          <mxGeometry x="30" width="150" height="30" as="geometry" />
        </mxCell>
        <mxCell id="fCQ5Y2yqFenwQ-32oqjo-8" value="" style="shape=partialRectangle;collapsible=0;dropTarget=0;pointerEvents=0;fillColor=none;top=0;left=0;bottom=0;right=0;points=[[0,0.5],[1,0.5]];portConstraint=eastwest;" vertex="1" parent="fCQ5Y2yqFenwQ-32oqjo-1">
          <mxGeometry y="90" width="180" height="30" as="geometry" />
        </mxCell>
        <mxCell id="fCQ5Y2yqFenwQ-32oqjo-9" value="" style="shape=partialRectangle;connectable=0;fillColor=none;top=0;left=0;bottom=0;right=0;editable=1;overflow=hidden;" vertex="1" parent="fCQ5Y2yqFenwQ-32oqjo-8">
          <mxGeometry width="30" height="30" as="geometry" />
        </mxCell>
        <mxCell id="fCQ5Y2yqFenwQ-32oqjo-10" value="Row 2" style="shape=partialRectangle;connectable=0;fillColor=none;top=0;left=0;bottom=0;right=0;align=left;spacingLeft=6;overflow=hidden;" vertex="1" parent="fCQ5Y2yqFenwQ-32oqjo-8">
          <mxGeometry x="30" width="150" height="30" as="geometry" />
        </mxCell>
        <mxCell id="fCQ5Y2yqFenwQ-32oqjo-11" value="" style="shape=partialRectangle;collapsible=0;dropTarget=0;pointerEvents=0;fillColor=none;top=0;left=0;bottom=0;right=0;points=[[0,0.5],[1,0.5]];portConstraint=eastwest;" vertex="1" parent="fCQ5Y2yqFenwQ-32oqjo-1">
          <mxGeometry y="120" width="180" height="30" as="geometry" />
        </mxCell>
        <mxCell id="fCQ5Y2yqFenwQ-32oqjo-12" value="" style="shape=partialRectangle;connectable=0;fillColor=none;top=0;left=0;bottom=0;right=0;editable=1;overflow=hidden;" vertex="1" parent="fCQ5Y2yqFenwQ-32oqjo-11">
          <mxGeometry width="30" height="30" as="geometry" />
        </mxCell>
        <mxCell id="fCQ5Y2yqFenwQ-32oqjo-13" value="Row 3" style="shape=partialRectangle;connectable=0;fillColor=none;top=0;left=0;bottom=0;right=0;align=left;spacingLeft=6;overflow=hidden;" vertex="1" parent="fCQ5Y2yqFenwQ-32oqjo-11">
          <mxGeometry x="30" width="150" height="30" as="geometry" />
        </mxCell>
      </root>
    </mxGraphModel>
  </diagram>
</mxfile>
